<?xml version="1.0" standalone="no"?>
<!DOCTYPE svg PUBLIC "-//W3C//DTD SVG 20010904//EN"
 "http://www.w3.org/TR/2001/REC-SVG-20010904/DTD/svg10.dtd">
<svg version="1.0" xmlns="http://www.w3.org/2000/svg"
 width="200.000000pt" height="200.000000pt" viewBox="0 0 200.000000 200.000000"
 preserveAspectRatio="xMidYMid meet">
<metadata>
Created by potrace 1.11, written by Peter Selinger 2001-2013
</metadata>
<g transform="translate(0.000000,200.000000) scale(0.100000,-0.100000)"
fill="#000000" stroke="none">
<path d="M970 1536 c-6 -8 -10 -23 -8 -33 1 -10 -12 -53 -31 -95 -25 -57 -39
-78 -56 -82 -30 -8 -215 76 -215 97 0 8 -8 21 -18 30 -46 42 -118 -4 -93 -59
14 -31 47 -44 80 -31 21 7 42 2 111 -30 80 -38 85 -42 85 -71 0 -23 -11 -42
-45 -77 -40 -40 -48 -44 -77 -39 -37 7 -89 -10 -97 -32 -8 -20 -143 44 -159
76 -18 36 -61 39 -83 6 -15 -24 -15 -28 1 -52 14 -22 22 -25 50 -20 52 10 162
-42 171 -81 4 -15 11 -33 16 -40 11 -14 -59 -122 -79 -123 -19 0 -33 -33 -22
-53 19 -33 69 -14 69 26 0 11 16 42 36 69 29 39 41 48 58 44 12 -2 34 1 51 8
27 11 34 10 67 -13 22 -15 37 -34 38 -46 0 -11 7 -31 16 -43 20 -29 78 -31 96
-2 9 14 46 31 111 51 86 27 101 29 115 16 26 -21 50 -27 75 -18 19 7 30 2 62
-28 22 -20 46 -49 53 -65 9 -21 18 -27 39 -24 58 7 55 70 -4 76 -19 2 -43 16
-64 38 -27 28 -33 41 -30 70 2 28 -3 40 -28 63 -31 29 -31 30 -31 134 0 58 4
108 9 111 5 3 47 -17 94 -44 78 -46 91 -58 156 -149 39 -55 71 -106 71 -114 0
-23 31 -30 49 -12 15 15 14 18 -4 33 -25 21 -145 186 -145 200 0 20 112 107
134 104 29 -4 60 30 51 57 -16 51 -74 46 -93 -7 -5 -16 -35 -50 -66 -77 -44
-37 -60 -46 -74 -39 -88 45 -139 81 -152 108 -12 24 -23 32 -51 36 -38 5 -168
95 -169 117 0 16 -28 43 -44 43 -8 0 -19 -6 -26 -14z m121 -122 c41 -34 69
-64 69 -75 0 -11 9 -27 20 -36 18 -15 20 -30 20 -125 0 -59 -4 -109 -8 -112
-13 -8 -239 193 -252 224 -10 25 -7 37 24 104 19 42 40 76 46 76 6 0 42 -25
81 -56z m-31 -295 c70 -61 84 -78 82 -99 -4 -33 -4 -33 -104 -64 l-88 -26 -21
21 c-16 16 -29 20 -54 16 -26 -4 -42 1 -70 22 -33 24 -37 33 -40 77 -2 46 1
52 43 96 34 35 51 46 66 42 12 -3 30 2 41 10 18 13 22 13 40 -3 11 -10 58 -51
105 -92z"/>
<path d="M507 754 c-4 -4 -7 -18 -7 -30 0 -31 44 -44 68 -20 13 13 14 20 6 34
-11 18 -55 28 -67 16z"/>
<path d="M390 600 l0 -151 33 3 32 3 0 145 0 145 -32 3 -33 3 0 -151z"/>
<path d="M1684 737 c-2 -7 -3 -74 -2 -148 l3 -134 33 -3 32 -3 0 61 c0 73 12
100 45 100 33 0 45 -27 45 -99 l0 -61 30 0 30 0 0 85 c0 78 -2 88 -25 110 -26
27 -72 33 -106 15 -18 -10 -19 -7 -19 40 0 49 -1 50 -30 50 -17 0 -33 -6 -36
-13z"/>
<path d="M100 590 l0 -140 78 0 c92 0 148 14 162 40 16 29 12 68 -9 89 -16 16
-17 21 -4 46 36 68 -13 105 -142 105 l-85 0 0 -140z m155 76 c29 -21 3 -46
-46 -46 -37 0 -39 2 -39 30 0 27 3 30 33 30 18 0 42 -6 52 -14z m10 -110 c33
-24 12 -46 -45 -46 -49 0 -50 1 -50 30 0 28 2 30 38 30 21 0 47 -6 57 -14z"/>
<path d="M970 700 c0 -29 2 -30 45 -30 l45 0 0 -110 0 -110 35 0 35 0 0 110 0
110 40 0 c38 0 40 2 40 30 l0 30 -120 0 -120 0 0 -30z"/>
<path d="M840 685 c0 -18 -5 -25 -20 -25 -14 0 -20 -7 -20 -21 0 -12 8 -23 20
-26 17 -5 20 -14 20 -64 0 -47 4 -62 22 -79 22 -20 72 -27 95 -12 21 13 4 52
-23 52 -22 0 -24 4 -24 50 0 47 2 50 25 50 20 0 25 5 25 25 0 20 -5 25 -25 25
-20 0 -25 5 -25 25 0 22 -4 25 -35 25 -31 0 -35 -3 -35 -25z"/>
<path d="M502 563 l3 -108 33 -3 32 -3 0 110 0 111 -35 0 -36 0 3 -107z"/>
<path d="M610 640 c0 -29 2 -30 46 -30 l46 0 -52 -61 c-71 -86 -67 -93 53 -97
l97 -3 0 30 c0 29 -2 30 -49 33 l-50 3 45 53 c25 31 44 64 44 78 0 24 -2 24
-90 24 l-90 0 0 -30z"/>
<path d="M1234 636 c-95 -95 25 -234 146 -171 17 9 30 19 30 23 0 21 -26 30
-69 25 -36 -4 -50 -1 -60 11 -12 14 -6 16 62 16 42 0 78 4 81 8 13 21 -16 84
-47 102 -51 32 -103 26 -143 -14z m107 -26 c32 -18 21 -30 -26 -30 -47 0 -58
12 -27 29 22 13 29 13 53 1z"/>
<path d="M1494 651 c-93 -57 -47 -201 64 -201 39 0 87 23 96 45 8 21 -39 44
-56 27 -22 -22 -67 -14 -80 13 -17 37 3 75 40 75 15 0 33 -5 40 -12 17 -17 64
6 56 27 -17 43 -108 58 -160 26z"/>
</g>
</svg>
